<?xml version="1.0" encoding="UTF-8" standalone="no"?>
<svg
   xmlns:dc="http://purl.org/dc/elements/1.1/"
   xmlns:cc="http://creativecommons.org/ns#"
   xmlns:rdf="http://www.w3.org/1999/02/22-rdf-syntax-ns#"
   xmlns:svg="http://www.w3.org/2000/svg"
   xmlns="http://www.w3.org/2000/svg"
   xmlns:xlink="http://www.w3.org/1999/xlink"
   xmlns:sodipodi="http://sodipodi.sourceforge.net/DTD/sodipodi-0.dtd"
   xmlns:inkscape="http://www.inkscape.org/namespaces/inkscape"
   version="1.1"
   id="Layer_1"
   x="0px"
   y="0px"
   viewBox="0 0 512 512"
   style="enable-background:new 0 0 512 512;"
   xml:space="preserve"
   sodipodi:docname="icon.svg"
   inkscape:version="1.0.2 (e86c870879, 2021-01-15)"><metadata
   id="metadata12"><rdf:RDF><cc:Work
       rdf:about=""><dc:format>image/svg+xml</dc:format><dc:type
         rdf:resource="http://purl.org/dc/dcmitype/StillImage" /></cc:Work></rdf:RDF></metadata><defs
   id="defs10"><marker
     style="overflow:visible"
     id="Arrow1Lstart"
     refX="0.0"
     refY="0.0"
     orient="auto"
     inkscape:stockid="Arrow1Lstart"
     inkscape:isstock="true"><path
       transform="scale(0.8) translate(12.5,0)"
       style="fill-rule:evenodd;stroke:#000000;stroke-width:1.0pt"
       d="M 0.0,0.0 L 5.0,-5.0 L -12.5,0.0 L 5.0,5.0 L 0.0,0.0 z "
       id="path878" /></marker><linearGradient
     inkscape:collect="always"
     id="linearGradient842"><stop
       style="stop-color:#000000;stop-opacity:1;"
       offset="0"
       id="stop838" /><stop
       style="stop-color:#000000;stop-opacity:0;"
       offset="1"
       id="stop840" /></linearGradient><linearGradient
     inkscape:collect="always"
     id="linearGradient841"><stop
       style="stop-color:#000000;stop-opacity:1;"
       offset="0"
       id="stop837" /><stop
       style="stop-color:#000000;stop-opacity:0;"
       offset="1"
       id="stop839" /></linearGradient><linearGradient
     inkscape:collect="always"
     xlink:href="#linearGradient841"
     id="linearGradient843"
     x1="0"
     y1="256"
     x2="512"
     y2="256"
     gradientUnits="userSpaceOnUse" /><linearGradient
     inkscape:collect="always"
     xlink:href="#linearGradient842"
     id="linearGradient844"
     x1="0"
     y1="256"
     x2="512"
     y2="256"
     gradientUnits="userSpaceOnUse" /></defs><sodipodi:namedview
   pagecolor="#ffffff"
   bordercolor="#666666"
   borderopacity="1"
   objecttolerance="10"
   gridtolerance="10"
   guidetolerance="10"
   inkscape:pageopacity="0"
   inkscape:pageshadow="2"
   inkscape:window-width="1366"
   inkscape:window-height="717"
   id="namedview8"
   showgrid="false"
   inkscape:zoom="0.71263105"
   inkscape:cx="514.78365"
   inkscape:cy="250.29467"
   inkscape:window-x="0"
   inkscape:window-y="22"
   inkscape:window-maximized="1"
   inkscape:current-layer="XMLID_1_"
   inkscape:document-rotation="0" />
<g
   id="XMLID_1_"
   style="mix-blend-mode:normal;fill:#070707;fill-opacity:1;stroke:#ededed;stroke-width:30.7682;stroke-miterlimit:4;stroke-dasharray:none;stroke-dashoffset:307.682;stroke-opacity:1"
   transform="matrix(-0.94987447,0,0,0.94987447,504.34752,8.1821959)">
	<path
   id="XMLID_3_"
   d="m 406.92901,158.91037 v 7.98135 c 24.65127,0 46.97886,9.59783 62.84053,26.26775 15.96271,15.9627 26.26775,38.18926 26.26775,62.84053 0,24.65127 -9.59783,46.97886 -26.26775,62.84053 -15.9627,15.96271 -38.18926,26.26775 -62.84053,26.26775 -24.65127,0 -46.97885,-9.59783 -62.84053,-26.26775 C 328.12577,302.87783 317.82073,280.65127 317.82073,256 c 0,-24.65127 9.59783,-46.97886 26.26775,-62.84053 15.96271,-15.96271 38.18926,-26.26775 62.84053,-26.26775 v -7.98135 -7.98136 c -58.09213,0 -105.07099,46.97886 -105.07099,105.07099 0,58.09213 46.97886,105.07099 105.07099,105.07099 C 465.02114,361.07099 512,314.09213 512,256 512,197.90787 465.02114,150.92901 406.92901,150.92901 Z"
   style="fill:#070707;fill-opacity:1;stroke:#ededed;stroke-width:31.0851;stroke-miterlimit:4;stroke-dasharray:none;stroke-dashoffset:307.682;stroke-opacity:1" />
	<polyline
   id="XMLID_4_"
   points="0,263.9 304,263.9 304,248.1 0,248.1  "
   style="fill:#070707;fill-opacity:1;stroke:#ededed;stroke-width:30.7682;stroke-miterlimit:4;stroke-dasharray:none;stroke-dashoffset:307.682;stroke-opacity:1"
   transform="matrix(1.010298,0,0,1.010298,-5.2725607,-2.6362804)" />
	<polyline
   id="XMLID_5_"
   points="40.2,256 40.2,336.3 55.9,336.3 55.9,256  "
   style="fill:#070707;fill-opacity:1;stroke:#ededed;stroke-width:30.7682;stroke-miterlimit:4;stroke-dasharray:none;stroke-dashoffset:307.682;stroke-opacity:1"
   transform="matrix(1.010298,0,0,1.010298,-5.2725607,-2.6362804)" />
	<polyline
   id="XMLID_6_"
   points="104,256 104,304 119.7,304 119.7,256  "
   style="fill:#070707;fill-opacity:1;stroke:#ededed;stroke-width:30.7682;stroke-miterlimit:4;stroke-dasharray:none;stroke-dashoffset:307.682;stroke-opacity:1"
   transform="matrix(1.010298,0,0,1.010298,-5.2725607,-2.6362804)" />
</g>
</svg>
